<?xml version="1.0" standalone="no"?><!DOCTYPE svg PUBLIC "-//W3C//DTD SVG 1.1//EN" "http://www.w3.org/Graphics/SVG/1.1/DTD/svg11.dtd"><svg t="1736773906551" class="icon" viewBox="0 0 1280 1024" version="1.1" xmlns="http://www.w3.org/2000/svg" p-id="5653" width="40" height="32" xmlns:xlink="http://www.w3.org/1999/xlink"><path d="M715.648 432.128c17.472 0-29.12-8.768-29.12-27.072 0-18.24 46.592-33.792 29.12-33.792H564.352c-40.704 0-69.76-24.32-69.76-54.784 0-30.4 29.056-54.72 69.76-54.72 11.648 0 17.472 0 29.12 6.08 17.408 6.08 34.88-6.08 40.704-24.32 0-18.304 23.296-30.464 46.528-30.464 29.12 0 46.592 18.24 46.592 36.48v6.08c-5.824 18.304 5.76 36.544 23.232 42.624 23.296 6.08 34.944 18.24 34.944 36.48 0 18.304-23.296 36.544-46.592 36.544h-23.232c-17.472 0-29.12 12.16-29.12 30.464 0 18.24 11.648 30.4 29.12 30.4h23.232c58.24 0 104.768-42.56 104.768-97.344 0-36.48-23.296-73.024-58.24-85.248 0-54.784-52.288-97.344-104.704-97.344-40.704 0-75.584 18.24-93.056 54.784h-23.296c-69.76 0-128 48.64-128 115.648 0 66.944 58.24 109.504 128 109.504h151.296z m-221.12 298.24H203.648c-17.472 0-29.12 12.16-29.12 30.464 0 18.24 11.648 30.464 29.12 30.464h290.88c17.472 0 29.12-12.16 29.12-30.464 0-18.24-11.648-30.4-29.12-30.4z" fill="#409eff" p-id="5654"></path><path d="M1262.528 681.728v-18.304l-139.648-517.312C1105.472 60.8 1029.824 0 960 0H320C250.24 0 174.528 60.864 151.296 139.968L11.648 657.344v18.304C5.76 706.048 0 730.432 0 760.832c0 115.648 93.12 213.056 203.648 213.056h872.704c110.528 0 203.648-97.408 203.648-213.056 0-30.4-5.76-54.784-17.472-79.104zM209.472 158.208C221.12 103.552 273.472 60.928 320 60.928h640c46.528 0 93.12 42.624 110.528 97.408l110.592 426.048c-29.12-24.32-64-36.48-104.768-36.48H203.648c-40.768 0-75.648 12.16-104.768 30.4l110.592-419.968z m866.88 754.816H203.648c-81.472 0-145.472-66.944-145.472-152.192 0-12.16 0-18.24 5.824-30.4v-6.144c11.648-66.944 69.76-115.648 139.648-115.648h872.704c69.824 0 128 48.704 139.648 121.792 0 12.16 5.76 18.24 5.76 30.4 0 85.248-64 152.192-145.408 152.192z" fill="#409eff" p-id="5655"></path><path d="M1018.24 669.568c-46.592 0-87.36 42.56-87.36 91.264 0 48.704 40.768 91.328 87.296 91.328 46.528 0 87.296-42.624 87.296-91.328 0-48.64-40.768-91.264-87.296-91.264z m0 121.728c-17.536 0-29.12-12.16-29.12-30.464 0-18.24 11.584-30.4 29.056-30.4s29.12 12.16 29.12 30.4-11.648 30.464-29.12 30.464z" fill="#409eff" p-id="5656"></path></svg>